midi.Pattern(format=0, resolution=480, tracks=\
[midi.Track(\
   midi.NoteOnEvent(tick=0, channel=0, data=[48, 105]),
   midi.NoteOnEvent(tick=0, channel=0, data=[52, 105]),
   midi.NoteOnEvent(tick=0, channel=0, data=[55, 105]),
   midi.NoteOnEvent(tick=0, channel=0, data=[60, 105]),
   midi.NoteOffEvent(tick=479, channel=0, data=[60, 0]),
   midi.NoteOnEvent(tick=1, channel=0, data=[60, 80]),
   midi.NoteOffEvent(tick=479, channel=0, data=[60, 0]),
   midi.NoteOnEvent(tick=1, channel=0, data=[60, 95]),
   midi.NoteOffEvent(tick=479, channel=0, data=[60, 0]),
   midi.NoteOnEvent(tick=1, channel=0, data=[60, 80]),
   midi.NoteOffEvent(tick=479, channel=0, data=[48, 0]),
   midi.NoteOffEvent(tick=0, channel=0, data=[52, 0]),
   midi.NoteOffEvent(tick=0, channel=0, data=[55, 0]),
   midi.NoteOffEvent(tick=0, channel=0, data=[60, 0]),
   midi.NoteOnEvent(tick=1, channel=0, data=[48, 95]),
   midi.NoteOnEvent(tick=0, channel=0, data=[51, 95]),
   midi.NoteOnEvent(tick=0, channel=0, data=[53, 95]),
   midi.NoteOnEvent(tick=0, channel=0, data=[57, 95]),
   midi.NoteOnEvent(tick=0, channel=0, data=[65, 95]),
   midi.NoteOffEvent(tick=479, channel=0, data=[65, 0]),
   midi.NoteOnEvent(tick=1, channel=0, data=[65, 80]),
   midi.NoteOffEvent(tick=479, channel=0, data=[65, 0]),
   midi.NoteOnEvent(tick=1, channel=0, data=[65, 95]),
   midi.NoteOffEvent(tick=479, channel=0, data=[65, 0]),
   midi.NoteOnEvent(tick=1, channel=0, data=[65, 80]),
   midi.NoteOffEvent(tick=479, channel=0, data=[48, 0]),
   midi.NoteOffEvent(tick=0, channel=0, data=[51, 0]),
   midi.NoteOffEvent(tick=0, channel=0, data=[53, 0]),
   midi.NoteOffEvent(tick=0, channel=0, data=[57, 0]),
   midi.NoteOffEvent(tick=0, channel=0, data=[65, 0]),
   midi.NoteOnEvent(tick=1, channel=0, data=[48, 95]),
   midi.NoteOnEvent(tick=0, channel=0, data=[52, 95]),
   midi.NoteOnEvent(tick=0, channel=0, data=[55, 95]),
   midi.NoteOnEvent(tick=0, channel=0, data=[60, 95]),
   midi.NoteOffEvent(tick=479, channel=0, data=[60, 0]),
   midi.NoteOnEvent(tick=1, channel=0, data=[60, 80]),
   midi.NoteOffEvent(tick=479, channel=0, data=[60, 0]),
   midi.NoteOnEvent(tick=1, channel=0, data=[60, 95]),
   midi.NoteOffEvent(tick=479, channel=0, data=[60, 0]),
   midi.NoteOnEvent(tick=1, channel=0, data=[60, 80]),
   midi.NoteOffEvent(tick=479, channel=0, data=[48, 0]),
   midi.NoteOffEvent(tick=0, channel=0, data=[52, 0]),
   midi.NoteOffEvent(tick=0, channel=0, data=[55, 0]),
   midi.NoteOffEvent(tick=0, channel=0, data=[60, 0]),
   midi.NoteOnEvent(tick=1, channel=0, data=[50, 95]),
   midi.NoteOnEvent(tick=0, channel=0, data=[53, 95]),
   midi.NoteOnEvent(tick=0, channel=0, data=[55, 95]),
   midi.NoteOnEvent(tick=0, channel=0, data=[58, 95]),
   midi.NoteOnEvent(tick=0, channel=0, data=[67, 95]),
   midi.NoteOffEvent(tick=479, channel=0, data=[67, 0]),
   midi.NoteOnEvent(tick=1, channel=0, data=[67, 80]),
   midi.NoteOffEvent(tick=479, channel=0, data=[50, 0]),
   midi.NoteOffEvent(tick=0, channel=0, data=[53, 0]),
   midi.NoteOffEvent(tick=0, channel=0, data=[55, 0]),
   midi.NoteOffEvent(tick=0, channel=0, data=[58, 0]),
   midi.NoteOffEvent(tick=0, channel=0, data=[67, 0]),
   midi.NoteOnEvent(tick=1, channel=0, data=[48, 95]),
   midi.NoteOnEvent(tick=0, channel=0, data=[52, 95]),
   midi.NoteOnEvent(tick=0, channel=0, data=[55, 95]),
   midi.NoteOnEvent(tick=0, channel=0, data=[60, 95]),
   midi.NoteOffEvent(tick=479, channel=0, data=[60, 0]),
   midi.NoteOnEvent(tick=1, channel=0, data=[60, 80]),
   midi.NoteOffEvent(tick=479, channel=0, data=[48, 0]),
   midi.NoteOffEvent(tick=0, channel=0, data=[52, 0]),
   midi.NoteOffEvent(tick=0, channel=0, data=[55, 0]),
   midi.NoteOffEvent(tick=0, channel=0, data=[60, 0]),
   midi.NoteOnEvent(tick=1, channel=0, data=[48, 95]),
   midi.NoteOnEvent(tick=0, channel=0, data=[51, 95]),
   midi.NoteOnEvent(tick=0, channel=0, data=[53, 95]),
   midi.NoteOnEvent(tick=0, channel=0, data=[57, 95]),
   midi.NoteOnEvent(tick=0, channel=0, data=[65, 95]),
   midi.NoteOffEvent(tick=479, channel=0, data=[65, 0]),
   midi.NoteOnEvent(tick=1, channel=0, data=[65, 80]),
   midi.NoteOffEvent(tick=479, channel=0, data=[65, 0]),
   midi.NoteOnEvent(tick=1, channel=0, data=[65, 95]),
   midi.NoteOffEvent(tick=479, channel=0, data=[65, 0]),
   midi.NoteOnEvent(tick=1, channel=0, data=[65, 80]),
   midi.NoteOffEvent(tick=479, channel=0, data=[48, 0]),
   midi.NoteOffEvent(tick=0, channel=0, data=[51, 0]),
   midi.NoteOffEvent(tick=0, channel=0, data=[53, 0]),
   midi.NoteOffEvent(tick=0, channel=0, data=[57, 0]),
   midi.NoteOffEvent(tick=0, channel=0, data=[65, 0]),
   midi.NoteOnEvent(tick=1, channel=0, data=[48, 95]),
   midi.NoteOnEvent(tick=0, channel=0, data=[51, 95]),
   midi.NoteOnEvent(tick=0, channel=0, data=[54, 95]),
   midi.NoteOnEvent(tick=0, channel=0, data=[57, 95]),
   midi.NoteOnEvent(tick=0, channel=0, data=[60, 95]),
   midi.NoteOffEvent(tick=479, channel=0, data=[60, 0]),
   midi.NoteOnEvent(tick=1, channel=0, data=[60, 80]),
   midi.NoteOffEvent(tick=479, channel=0, data=[60, 0]),
   midi.NoteOnEvent(tick=1, channel=0, data=[60, 95]),
   midi.NoteOffEvent(tick=479, channel=0, data=[60, 0]),
   midi.NoteOnEvent(tick=1, channel=0, data=[60, 80]),
   midi.NoteOffEvent(tick=479, channel=0, data=[48, 0]),
   midi.NoteOffEvent(tick=0, channel=0, data=[51, 0]),
   midi.NoteOffEvent(tick=0, channel=0, data=[54, 0]),
   midi.NoteOffEvent(tick=0, channel=0, data=[57, 0]),
   midi.NoteOffEvent(tick=0, channel=0, data=[60, 0]),
   midi.NoteOnEvent(tick=1, channel=0, data=[48, 95]),
   midi.NoteOnEvent(tick=0, channel=0, data=[52, 95]),
   midi.NoteOnEvent(tick=0, channel=0, data=[55, 95]),
   midi.NoteOnEvent(tick=0, channel=0, data=[60, 95]),
   midi.NoteOffEvent(tick=479, channel=0, data=[60, 0]),
   midi.NoteOnEvent(tick=1, channel=0, data=[60, 80]),
   midi.NoteOffEvent(tick=479, channel=0, data=[60, 0]),
   midi.NoteOnEvent(tick=1, channel=0, data=[60, 95]),
   midi.NoteOffEvent(tick=479, channel=0, data=[60, 0]),
   midi.NoteOnEvent(tick=1, channel=0, data=[60, 80]),
   midi.NoteOffEvent(tick=479, channel=0, data=[48, 0]),
   midi.NoteOffEvent(tick=0, channel=0, data=[52, 0]),
   midi.NoteOffEvent(tick=0, channel=0, data=[55, 0]),
   midi.NoteOffEvent(tick=0, channel=0, data=[60, 0]),
   midi.NoteOnEvent(tick=1, channel=0, data=[52, 95]),
   midi.NoteOnEvent(tick=0, channel=0, data=[55, 95]),
   midi.NoteOnEvent(tick=0, channel=0, data=[59, 95]),
   midi.NoteOnEvent(tick=0, channel=0, data=[64, 95]),
   midi.NoteOffEvent(tick=479, channel=0, data=[64, 0]),
   midi.NoteOnEvent(tick=1, channel=0, data=[64, 80]),
   midi.NoteOffEvent(tick=479, channel=0, data=[52, 0]),
   midi.NoteOffEvent(tick=0, channel=0, data=[55, 0]),
   midi.NoteOffEvent(tick=0, channel=0, data=[59, 0]),
   midi.NoteOffEvent(tick=0, channel=0, data=[64, 0]),
   midi.NoteOnEvent(tick=1, channel=0, data=[49, 95]),
   midi.NoteOnEvent(tick=0, channel=0, data=[52, 95]),
   midi.NoteOnEvent(tick=0, channel=0, data=[55, 95]),
   midi.NoteOnEvent(tick=0, channel=0, data=[57, 95]),
   midi.NoteOnEvent(tick=0, channel=0, data=[69, 95]),
   midi.NoteOffEvent(tick=479, channel=0, data=[69, 0]),
   midi.NoteOnEvent(tick=1, channel=0, data=[69, 80]),
   midi.NoteOffEvent(tick=479, channel=0, data=[49, 0]),
   midi.NoteOffEvent(tick=0, channel=0, data=[52, 0]),
   midi.NoteOffEvent(tick=0, channel=0, data=[55, 0]),
   midi.NoteOffEvent(tick=0, channel=0, data=[57, 0]),
   midi.NoteOffEvent(tick=0, channel=0, data=[69, 0]),
   midi.NoteOnEvent(tick=1, channel=0, data=[48, 95]),
   midi.NoteOnEvent(tick=0, channel=0, data=[50, 95]),
   midi.NoteOnEvent(tick=0, channel=0, data=[53, 95]),
   midi.NoteOnEvent(tick=0, channel=0, data=[57, 95]),
   midi.NoteOnEvent(tick=0, channel=0, data=[62, 95]),
   midi.NoteOffEvent(tick=479, channel=0, data=[62, 0]),
   midi.NoteOnEvent(tick=1, channel=0, data=[62, 80]),
   midi.NoteOffEvent(tick=479, channel=0, data=[62, 0]),
   midi.NoteOnEvent(tick=1, channel=0, data=[62, 95]),
   midi.NoteOffEvent(tick=479, channel=0, data=[62, 0]),
   midi.NoteOnEvent(tick=1, channel=0, data=[62, 80]),
   midi.NoteOffEvent(tick=479, channel=0, data=[48, 0]),
   midi.NoteOffEvent(tick=0, channel=0, data=[50, 0]),
   midi.NoteOffEvent(tick=0, channel=0, data=[53, 0]),
   midi.NoteOffEvent(tick=0, channel=0, data=[57, 0]),
   midi.NoteOffEvent(tick=0, channel=0, data=[62, 0]),
   midi.NoteOnEvent(tick=1, channel=0, data=[50, 95]),
   midi.NoteOnEvent(tick=0, channel=0, data=[53, 95]),
   midi.NoteOnEvent(tick=0, channel=0, data=[55, 95]),
   midi.NoteOnEvent(tick=0, channel=0, data=[59, 95]),
   midi.NoteOnEvent(tick=0, channel=0, data=[67, 95]),
   midi.NoteOffEvent(tick=479, channel=0, data=[67, 0]),
   midi.NoteOnEvent(tick=1, channel=0, data=[67, 80]),
   midi.NoteOffEvent(tick=479, channel=0, data=[67, 0]),
   midi.NoteOnEvent(tick=1, channel=0, data=[67, 95]),
   midi.NoteOffEvent(tick=479, channel=0, data=[67, 0]),
   midi.NoteOnEvent(tick=1, channel=0, data=[67, 80]),
   midi.NoteOffEvent(tick=479, channel=0, data=[50, 0]),
   midi.NoteOffEvent(tick=0, channel=0, data=[53, 0]),
   midi.NoteOffEvent(tick=0, channel=0, data=[55, 0]),
   midi.NoteOffEvent(tick=0, channel=0, data=[59, 0]),
   midi.NoteOffEvent(tick=0, channel=0, data=[67, 0]),
   midi.NoteOnEvent(tick=1, channel=0, data=[48, 95]),
   midi.NoteOnEvent(tick=0, channel=0, data=[52, 95]),
   midi.NoteOnEvent(tick=0, channel=0, data=[55, 95]),
   midi.NoteOnEvent(tick=0, channel=0, data=[60, 95]),
   midi.NoteOffEvent(tick=479, channel=0, data=[60, 0]),
   midi.NoteOnEvent(tick=1, channel=0, data=[60, 80]),
   midi.NoteOffEvent(tick=479, channel=0, data=[48, 0]),
   midi.NoteOffEvent(tick=0, channel=0, data=[52, 0]),
   midi.NoteOffEvent(tick=0, channel=0, data=[55, 0]),
   midi.NoteOffEvent(tick=0, channel=0, data=[60, 0]),
   midi.NoteOnEvent(tick=1, channel=0, data=[49, 95]),
   midi.NoteOnEvent(tick=0, channel=0, data=[52, 95]),
   midi.NoteOnEvent(tick=0, channel=0, data=[55, 95]),
   midi.NoteOnEvent(tick=0, channel=0, data=[57, 95]),
   midi.NoteOnEvent(tick=0, channel=0, data=[69, 95]),
   midi.NoteOffEvent(tick=479, channel=0, data=[69, 0]),
   midi.NoteOnEvent(tick=1, channel=0, data=[69, 80]),
   midi.NoteOffEvent(tick=479, channel=0, data=[49, 0]),
   midi.NoteOffEvent(tick=0, channel=0, data=[52, 0]),
   midi.NoteOffEvent(tick=0, channel=0, data=[55, 0]),
   midi.NoteOffEvent(tick=0, channel=0, data=[57, 0]),
   midi.NoteOffEvent(tick=0, channel=0, data=[69, 0]),
   midi.NoteOnEvent(tick=1, channel=0, data=[50, 95]),
   midi.NoteOnEvent(tick=0, channel=0, data=[53, 95]),
   midi.NoteOnEvent(tick=0, channel=0, data=[57, 95]),
   midi.NoteOnEvent(tick=0, channel=0, data=[62, 95]),
   midi.NoteOffEvent(tick=479, channel=0, data=[62, 0]),
   midi.NoteOnEvent(tick=1, channel=0, data=[62, 80]),
   midi.NoteOffEvent(tick=479, channel=0, data=[50, 0]),
   midi.NoteOffEvent(tick=0, channel=0, data=[53, 0]),
   midi.NoteOffEvent(tick=0, channel=0, data=[57, 0]),
   midi.NoteOffEvent(tick=0, channel=0, data=[62, 0]),
   midi.NoteOnEvent(tick=1, channel=0, data=[50, 95]),
   midi.NoteOnEvent(tick=0, channel=0, data=[53, 95]),
   midi.NoteOnEvent(tick=0, channel=0, data=[55, 95]),
   midi.NoteOnEvent(tick=0, channel=0, data=[59, 95]),
   midi.NoteOnEvent(tick=0, channel=0, data=[67, 95]),
   midi.NoteOffEvent(tick=479, channel=0, data=[67, 0]),
   midi.NoteOnEvent(tick=1, channel=0, data=[67, 80]),
   midi.NoteOffEvent(tick=479, channel=0, data=[50, 0]),
   midi.NoteOffEvent(tick=0, channel=0, data=[53, 0]),
   midi.NoteOffEvent(tick=0, channel=0, data=[55, 0]),
   midi.NoteOffEvent(tick=0, channel=0, data=[59, 0]),
   midi.NoteOffEvent(tick=0, channel=0, data=[67, 0]),
   midi.NoteOnEvent(tick=1, channel=0, data=[48, 95]),
   midi.NoteOnEvent(tick=0, channel=0, data=[52, 95]),
   midi.NoteOnEvent(tick=0, channel=0, data=[55, 95]),
   midi.NoteOnEvent(tick=0, channel=0, data=[60, 95]),
   midi.NoteOffEvent(tick=479, channel=0, data=[60, 0]),
   midi.NoteOnEvent(tick=1, channel=0, data=[60, 80]),
   midi.NoteOffEvent(tick=479, channel=0, data=[60, 0]),
   midi.NoteOnEvent(tick=1, channel=0, data=[60, 95]),
   midi.NoteOffEvent(tick=479, channel=0, data=[60, 0]),
   midi.NoteOnEvent(tick=1, channel=0, data=[60, 80]),
   midi.NoteOffEvent(tick=479, channel=0, data=[48, 0]),
   midi.NoteOffEvent(tick=0, channel=0, data=[52, 0]),
   midi.NoteOffEvent(tick=0, channel=0, data=[55, 0]),
   midi.NoteOffEvent(tick=0, channel=0, data=[60, 0]),
   midi.NoteOnEvent(tick=1, channel=0, data=[48, 95]),
   midi.NoteOnEvent(tick=0, channel=0, data=[51, 95]),
   midi.NoteOnEvent(tick=0, channel=0, data=[53, 95]),
   midi.NoteOnEvent(tick=0, channel=0, data=[57, 95]),
   midi.NoteOnEvent(tick=0, channel=0, data=[65, 95]),
   midi.NoteOffEvent(tick=479, channel=0, data=[65, 0]),
   midi.NoteOnEvent(tick=1, channel=0, data=[65, 80]),
   midi.NoteOffEvent(tick=479, channel=0, data=[65, 0]),
   midi.NoteOnEvent(tick=1, channel=0, data=[65, 95]),
   midi.NoteOffEvent(tick=479, channel=0, data=[65, 0]),
   midi.NoteOnEvent(tick=1, channel=0, data=[65, 80]),
   midi.NoteOffEvent(tick=479, channel=0, data=[48, 0]),
   midi.NoteOffEvent(tick=0, channel=0, data=[51, 0]),
   midi.NoteOffEvent(tick=0, channel=0, data=[53, 0]),
   midi.NoteOffEvent(tick=0, channel=0, data=[57, 0]),
   midi.NoteOffEvent(tick=0, channel=0, data=[65, 0]),
   midi.NoteOnEvent(tick=1, channel=0, data=[48, 95]),
   midi.NoteOnEvent(tick=0, channel=0, data=[52, 95]),
   midi.NoteOnEvent(tick=0, channel=0, data=[55, 95]),
   midi.NoteOnEvent(tick=0, channel=0, data=[60, 95]),
   midi.NoteOffEvent(tick=479, channel=0, data=[60, 0]),
   midi.NoteOnEvent(tick=1, channel=0, data=[60, 80]),
   midi.NoteOffEvent(tick=479, channel=0, data=[60, 0]),
   midi.NoteOnEvent(tick=1, channel=0, data=[60, 95]),
   midi.NoteOffEvent(tick=479, channel=0, data=[60, 0]),
   midi.NoteOnEvent(tick=1, channel=0, data=[60, 80]),
   midi.NoteOffEvent(tick=479, channel=0, data=[48, 0]),
   midi.NoteOffEvent(tick=0, channel=0, data=[52, 0]),
   midi.NoteOffEvent(tick=0, channel=0, data=[55, 0]),
   midi.NoteOffEvent(tick=0, channel=0, data=[60, 0]),
   midi.NoteOnEvent(tick=1, channel=0, data=[50, 95]),
   midi.NoteOnEvent(tick=0, channel=0, data=[53, 95]),
   midi.NoteOnEvent(tick=0, channel=0, data=[55, 95]),
   midi.NoteOnEvent(tick=0, channel=0, data=[58, 95]),
   midi.NoteOnEvent(tick=0, channel=0, data=[67, 95]),
   midi.NoteOffEvent(tick=479, channel=0, data=[67, 0]),
   midi.NoteOnEvent(tick=1, channel=0, data=[67, 80]),
   midi.NoteOffEvent(tick=479, channel=0, data=[50, 0]),
   midi.NoteOffEvent(tick=0, channel=0, data=[53, 0]),
   midi.NoteOffEvent(tick=0, channel=0, data=[55, 0]),
   midi.NoteOffEvent(tick=0, channel=0, data=[58, 0]),
   midi.NoteOffEvent(tick=0, channel=0, data=[67, 0]),
   midi.NoteOnEvent(tick=1, channel=0, data=[48, 95]),
   midi.NoteOnEvent(tick=0, channel=0, data=[52, 95]),
   midi.NoteOnEvent(tick=0, channel=0, data=[55, 95]),
   midi.NoteOnEvent(tick=0, channel=0, data=[60, 95]),
   midi.NoteOffEvent(tick=479, channel=0, data=[60, 0]),
   midi.NoteOnEvent(tick=1, channel=0, data=[60, 80]),
   midi.NoteOffEvent(tick=479, channel=0, data=[48, 0]),
   midi.NoteOffEvent(tick=0, channel=0, data=[52, 0]),
   midi.NoteOffEvent(tick=0, channel=0, data=[55, 0]),
   midi.NoteOffEvent(tick=0, channel=0, data=[60, 0]),
   midi.NoteOnEvent(tick=1, channel=0, data=[48, 95]),
   midi.NoteOnEvent(tick=0, channel=0, data=[51, 95]),
   midi.NoteOnEvent(tick=0, channel=0, data=[53, 95]),
   midi.NoteOnEvent(tick=0, channel=0, data=[57, 95]),
   midi.NoteOnEvent(tick=0, channel=0, data=[65, 95]),
   midi.NoteOffEvent(tick=479, channel=0, data=[65, 0]),
   midi.NoteOnEvent(tick=1, channel=0, data=[65, 80]),
   midi.NoteOffEvent(tick=479, channel=0, data=[65, 0]),
   midi.NoteOnEvent(tick=1, channel=0, data=[65, 95]),
   midi.NoteOffEvent(tick=479, channel=0, data=[65, 0]),
   midi.NoteOnEvent(tick=1, channel=0, data=[65, 80]),
   midi.NoteOffEvent(tick=479, channel=0, data=[48, 0]),
   midi.NoteOffEvent(tick=0, channel=0, data=[51, 0]),
   midi.NoteOffEvent(tick=0, channel=0, data=[53, 0]),
   midi.NoteOffEvent(tick=0, channel=0, data=[57, 0]),
   midi.NoteOffEvent(tick=0, channel=0, data=[65, 0]),
   midi.NoteOnEvent(tick=1, channel=0, data=[48, 95]),
   midi.NoteOnEvent(tick=0, channel=0, data=[51, 95]),
   midi.NoteOnEvent(tick=0, channel=0, data=[54, 95]),
   midi.NoteOnEvent(tick=0, channel=0, data=[57, 95]),
   midi.NoteOnEvent(tick=0, channel=0, data=[60, 95]),
   midi.NoteOffEvent(tick=479, channel=0, data=[60, 0]),
   midi.NoteOnEvent(tick=1, channel=0, data=[60, 80]),
   midi.NoteOffEvent(tick=479, channel=0, data=[60, 0]),
   midi.NoteOnEvent(tick=1, channel=0, data=[60, 95]),
   midi.NoteOffEvent(tick=479, channel=0, data=[60, 0]),
   midi.NoteOnEvent(tick=1, channel=0, data=[60, 80]),
   midi.NoteOffEvent(tick=479, channel=0, data=[48, 0]),
   midi.NoteOffEvent(tick=0, channel=0, data=[51, 0]),
   midi.NoteOffEvent(tick=0, channel=0, data=[54, 0]),
   midi.NoteOffEvent(tick=0, channel=0, data=[57, 0]),
   midi.NoteOffEvent(tick=0, channel=0, data=[60, 0]),
   midi.NoteOnEvent(tick=1, channel=0, data=[48, 95]),
   midi.NoteOnEvent(tick=0, channel=0, data=[52, 95]),
   midi.NoteOnEvent(tick=0, channel=0, data=[55, 95]),
   midi.NoteOnEvent(tick=0, channel=0, data=[60, 95]),
   midi.NoteOffEvent(tick=479, channel=0, data=[60, 0]),
   midi.NoteOnEvent(tick=1, channel=0, data=[60, 80]),
   midi.NoteOffEvent(tick=479, channel=0, data=[60, 0]),
   midi.NoteOnEvent(tick=1, channel=0, data=[60, 95]),
   midi.NoteOffEvent(tick=479, channel=0, data=[60, 0]),
   midi.NoteOnEvent(tick=1, channel=0, data=[60, 80]),
   midi.NoteOffEvent(tick=479, channel=0, data=[48, 0]),
   midi.NoteOffEvent(tick=0, channel=0, data=[52, 0]),
   midi.NoteOffEvent(tick=0, channel=0, data=[55, 0]),
   midi.NoteOffEvent(tick=0, channel=0, data=[60, 0]),
   midi.NoteOnEvent(tick=1, channel=0, data=[52, 95]),
   midi.NoteOnEvent(tick=0, channel=0, data=[55, 95]),
   midi.NoteOnEvent(tick=0, channel=0, data=[59, 95]),
   midi.NoteOnEvent(tick=0, channel=0, data=[64, 95]),
   midi.NoteOffEvent(tick=479, channel=0, data=[64, 0]),
   midi.NoteOnEvent(tick=1, channel=0, data=[64, 80]),
   midi.NoteOffEvent(tick=479, channel=0, data=[52, 0]),
   midi.NoteOffEvent(tick=0, channel=0, data=[55, 0]),
   midi.NoteOffEvent(tick=0, channel=0, data=[59, 0]),
   midi.NoteOffEvent(tick=0, channel=0, data=[64, 0]),
   midi.NoteOnEvent(tick=1, channel=0, data=[49, 95]),
   midi.NoteOnEvent(tick=0, channel=0, data=[52, 95]),
   midi.NoteOnEvent(tick=0, channel=0, data=[55, 95]),
   midi.NoteOnEvent(tick=0, channel=0, data=[57, 95]),
   midi.NoteOnEvent(tick=0, channel=0, data=[69, 95]),
   midi.NoteOffEvent(tick=479, channel=0, data=[69, 0]),
   midi.NoteOnEvent(tick=1, channel=0, data=[69, 80]),
   midi.NoteOffEvent(tick=479, channel=0, data=[49, 0]),
   midi.NoteOffEvent(tick=0, channel=0, data=[52, 0]),
   midi.NoteOffEvent(tick=0, channel=0, data=[55, 0]),
   midi.NoteOffEvent(tick=0, channel=0, data=[57, 0]),
   midi.NoteOffEvent(tick=0, channel=0, data=[69, 0]),
   midi.NoteOnEvent(tick=1, channel=0, data=[48, 95]),
   midi.NoteOnEvent(tick=0, channel=0, data=[50, 95]),
   midi.NoteOnEvent(tick=0, channel=0, data=[53, 95]),
   midi.NoteOnEvent(tick=0, channel=0, data=[57, 95]),
   midi.NoteOnEvent(tick=0, channel=0, data=[62, 95]),
   midi.NoteOffEvent(tick=479, channel=0, data=[62, 0]),
   midi.NoteOnEvent(tick=1, channel=0, data=[62, 80]),
   midi.NoteOffEvent(tick=479, channel=0, data=[62, 0]),
   midi.NoteOnEvent(tick=1, channel=0, data=[62, 95]),
   midi.NoteOffEvent(tick=479, channel=0, data=[62, 0]),
   midi.NoteOnEvent(tick=1, channel=0, data=[62, 80]),
   midi.NoteOffEvent(tick=479, channel=0, data=[48, 0]),
   midi.NoteOffEvent(tick=0, channel=0, data=[50, 0]),
   midi.NoteOffEvent(tick=0, channel=0, data=[53, 0]),
   midi.NoteOffEvent(tick=0, channel=0, data=[57, 0]),
   midi.NoteOffEvent(tick=0, channel=0, data=[62, 0]),
   midi.NoteOnEvent(tick=1, channel=0, data=[50, 95]),
   midi.NoteOnEvent(tick=0, channel=0, data=[53, 95]),
   midi.NoteOnEvent(tick=0, channel=0, data=[55, 95]),
   midi.NoteOnEvent(tick=0, channel=0, data=[59, 95]),
   midi.NoteOnEvent(tick=0, channel=0, data=[67, 95]),
   midi.NoteOffEvent(tick=479, channel=0, data=[67, 0]),
   midi.NoteOnEvent(tick=1, channel=0, data=[67, 80]),
   midi.NoteOffEvent(tick=479, channel=0, data=[67, 0]),
   midi.NoteOnEvent(tick=1, channel=0, data=[67, 95]),
   midi.NoteOffEvent(tick=479, channel=0, data=[67, 0]),
   midi.NoteOnEvent(tick=1, channel=0, data=[67, 80]),
   midi.NoteOffEvent(tick=479, channel=0, data=[50, 0]),
   midi.NoteOffEvent(tick=0, channel=0, data=[53, 0]),
   midi.NoteOffEvent(tick=0, channel=0, data=[55, 0]),
   midi.NoteOffEvent(tick=0, channel=0, data=[59, 0]),
   midi.NoteOffEvent(tick=0, channel=0, data=[67, 0]),
   midi.NoteOnEvent(tick=1, channel=0, data=[48, 95]),
   midi.NoteOnEvent(tick=0, channel=0, data=[52, 95]),
   midi.NoteOnEvent(tick=0, channel=0, data=[55, 95]),
   midi.NoteOnEvent(tick=0, channel=0, data=[60, 95]),
   midi.NoteOffEvent(tick=479, channel=0, data=[60, 0]),
   midi.NoteOnEvent(tick=1, channel=0, data=[60, 80]),
   midi.NoteOffEvent(tick=479, channel=0, data=[48, 0]),
   midi.NoteOffEvent(tick=0, channel=0, data=[52, 0]),
   midi.NoteOffEvent(tick=0, channel=0, data=[55, 0]),
   midi.NoteOffEvent(tick=0, channel=0, data=[60, 0]),
   midi.NoteOnEvent(tick=1, channel=0, data=[49, 95]),
   midi.NoteOnEvent(tick=0, channel=0, data=[52, 95]),
   midi.NoteOnEvent(tick=0, channel=0, data=[55, 95]),
   midi.NoteOnEvent(tick=0, channel=0, data=[57, 95]),
   midi.NoteOnEvent(tick=0, channel=0, data=[69, 95]),
   midi.NoteOffEvent(tick=479, channel=0, data=[69, 0]),
   midi.NoteOnEvent(tick=1, channel=0, data=[69, 80]),
   midi.NoteOffEvent(tick=479, channel=0, data=[49, 0]),
   midi.NoteOffEvent(tick=0, channel=0, data=[52, 0]),
   midi.NoteOffEvent(tick=0, channel=0, data=[55, 0]),
   midi.NoteOffEvent(tick=0, channel=0, data=[57, 0]),
   midi.NoteOffEvent(tick=0, channel=0, data=[69, 0]),
   midi.NoteOnEvent(tick=1, channel=0, data=[50, 95]),
   midi.NoteOnEvent(tick=0, channel=0, data=[53, 95]),
   midi.NoteOnEvent(tick=0, channel=0, data=[57, 95]),
   midi.NoteOnEvent(tick=0, channel=0, data=[62, 95]),
   midi.NoteOffEvent(tick=479, channel=0, data=[62, 0]),
   midi.NoteOnEvent(tick=1, channel=0, data=[62, 80]),
   midi.NoteOffEvent(tick=479, channel=0, data=[50, 0]),
   midi.NoteOffEvent(tick=0, channel=0, data=[53, 0]),
   midi.NoteOffEvent(tick=0, channel=0, data=[57, 0]),
   midi.NoteOffEvent(tick=0, channel=0, data=[62, 0]),
   midi.NoteOnEvent(tick=1, channel=0, data=[50, 95]),
   midi.NoteOnEvent(tick=0, channel=0, data=[53, 95]),
   midi.NoteOnEvent(tick=0, channel=0, data=[55, 95]),
   midi.NoteOnEvent(tick=0, channel=0, data=[59, 95]),
   midi.NoteOnEvent(tick=0, channel=0, data=[67, 95]),
   midi.NoteOffEvent(tick=479, channel=0, data=[67, 0]),
   midi.NoteOnEvent(tick=1, channel=0, data=[67, 80]),
   midi.NoteOffEvent(tick=479, channel=0, data=[50, 0]),
   midi.NoteOffEvent(tick=0, channel=0, data=[53, 0]),
   midi.NoteOffEvent(tick=0, channel=0, data=[55, 0]),
   midi.NoteOffEvent(tick=0, channel=0, data=[59, 0]),
   midi.NoteOffEvent(tick=0, channel=0, data=[67, 0]),
   midi.EndOfTrackEvent(tick=1, data=[])])])
